<svg baseProfile="full" height="97mm" version="1.1" viewBox="0 0 142 97" width="142mm" xmlns="http://www.w3.org/2000/svg" xmlns:ev="http://www.w3.org/2001/xml-events" xmlns:xlink="http://www.w3.org/1999/xlink"><defs /><g transform="translate(0.0,0.0)"><polygon fill="#000" points="12.990381056766578,30.0 25.980762113533157,22.5 25.98076211353316,7.5000000000000036 12.99038105676658,0.0 1.7763568394002505e-15,7.499999999999993 -7.105427357601002e-15,22.49999999999999" stroke="none" /><path d="M19.485572,3.750000 C16.237976,9.375000 9.742786,9.375000 6.495191,3.750000" stroke="#f00" stroke-width="1.5" /><path d="M25.980762,15.000000 C19.485572,15.000000 16.237976,20.625000 19.485572,26.250000" stroke="#00f" stroke-width="1.5" /><path d="M6.495191,26.250000 C9.742786,20.625000 6.495191,15.000000 -0.000000,15.000000" stroke="#ff0" stroke-width="1.5" /><polygon fill="none" points="12.990381056766578,30.0 25.980762113533157,22.5 25.98076211353316,7.5000000000000036 12.99038105676658,0.0 1.7763568394002505e-15,7.499999999999993 -7.105427357601002e-15,22.49999999999999" stroke="#fff" stroke-width="0.9" /><text fill="#fff" font-size="3" x="12.99038105676658" y="14.999999999999998">#3</text></g><g transform="translate(25.980762113533157,0.0)"><polygon fill="#000" points="12.990381056766578,30.0 25.980762113533157,22.5 25.98076211353316,7.5000000000000036 12.99038105676658,0.0 1.7763568394002505e-15,7.499999999999993 -7.105427357601002e-15,22.49999999999999" stroke="none" /><path d="M19.485572,3.750000 C16.237976,9.375000 9.742786,9.375000 6.495191,3.750000" stroke="#f00" stroke-width="1.5" /><path d="M25.980762,15.000000 C19.485572,15.000000 6.495191,15.000000 -0.000000,15.000000" stroke="#00f" stroke-width="1.5" /><path d="M19.485572,26.250000 C16.237976,20.625000 9.742786,20.625000 6.495191,26.250000" stroke="#ff0" stroke-width="1.5" /><polygon fill="none" points="12.990381056766578,30.0 25.980762113533157,22.5 25.98076211353316,7.5000000000000036 12.99038105676658,0.0 1.7763568394002505e-15,7.499999999999993 -7.105427357601002e-15,22.49999999999999" stroke="#fff" stroke-width="0.9" /><text fill="#fff" font-size="3" x="12.99038105676658" y="14.999999999999998">#2</text></g><g transform="translate(51.96152422706631,0.0)"><polygon fill="#000" points="12.990381056766578,30.0 25.980762113533157,22.5 25.98076211353316,7.5000000000000036 12.99038105676658,0.0 1.7763568394002505e-15,7.499999999999993 -7.105427357601002e-15,22.49999999999999" stroke="none" /><path d="M19.485572,3.750000 C16.237976,9.375000 19.485572,15.000000 25.980762,15.000000" stroke="#ff0" stroke-width="1.5" /><path d="M19.485572,26.250000 C16.237976,20.625000 6.495191,15.000000 -0.000000,15.000000" stroke="#00f" stroke-width="1.5" /><path d="M6.495191,26.250000 C9.742786,20.625000 9.742786,9.375000 6.495191,3.750000" stroke="#f00" stroke-width="1.5" /><polygon fill="none" points="12.990381056766578,30.0 25.980762113533157,22.5 25.98076211353316,7.5000000000000036 12.99038105676658,0.0 1.7763568394002505e-15,7.499999999999993 -7.105427357601002e-15,22.49999999999999" stroke="#fff" stroke-width="0.9" /><text fill="#fff" font-size="3" x="12.99038105676658" y="14.999999999999998">#1</text></g><g transform="translate(12.990381056766578,22.5)"><polygon fill="#000" points="12.990381056766578,30.0 25.980762113533157,22.5 25.98076211353316,7.5000000000000036 12.99038105676658,0.0 1.7763568394002505e-15,7.499999999999993 -7.105427357601002e-15,22.49999999999999" stroke="none" /><path d="M19.485572,3.750000 C16.237976,9.375000 6.495191,15.000000 -0.000000,15.000000" stroke="#ff0" stroke-width="1.5" /><path d="M25.980762,15.000000 C19.485572,15.000000 9.742786,20.625000 6.495191,26.250000" stroke="#f00" stroke-width="1.5" /><path d="M19.485572,26.250000 C16.237976,20.625000 9.742786,9.375000 6.495191,3.750000" stroke="#00f" stroke-width="1.5" /><polygon fill="none" points="12.990381056766578,30.0 25.980762113533157,22.5 25.98076211353316,7.5000000000000036 12.99038105676658,0.0 1.7763568394002505e-15,7.499999999999993 -7.105427357601002e-15,22.49999999999999" stroke="#fff" stroke-width="0.9" /><text fill="#fff" font-size="3" x="12.99038105676658" y="14.999999999999998">#4</text></g><g transform="translate(38.97114317029973,22.5)"><polygon fill="#000" points="12.990381056766578,30.0 25.980762113533157,22.5 25.98076211353316,7.5000000000000036 12.99038105676658,0.0 1.7763568394002505e-15,7.499999999999993 -7.105427357601002e-15,22.49999999999999" stroke="none" /><path d="M19.485572,3.750000 C16.237976,9.375000 6.495191,15.000000 -0.000000,15.000000" stroke="#f00" stroke-width="1.5" /><path d="M25.980762,15.000000 C19.485572,15.000000 9.742786,20.625000 6.495191,26.250000" stroke="#00f" stroke-width="1.5" /><path d="M19.485572,26.250000 C16.237976,20.625000 9.742786,9.375000 6.495191,3.750000" stroke="#ff0" stroke-width="1.5" /><polygon fill="none" points="12.990381056766578,30.0 25.980762113533157,22.5 25.98076211353316,7.5000000000000036 12.99038105676658,0.0 1.7763568394002505e-15,7.499999999999993 -7.105427357601002e-15,22.49999999999999" stroke="#fff" stroke-width="0.9" /><text fill="#fff" font-size="3" x="12.99038105676658" y="14.999999999999998">#6</text></g><g transform="translate(64.95190528383289,22.5)"><polygon fill="#000" points="12.990381056766578,30.0 25.980762113533157,22.5 25.98076211353316,7.5000000000000036 12.99038105676658,0.0 1.7763568394002505e-15,7.499999999999993 -7.105427357601002e-15,22.49999999999999" stroke="none" /><path d="M19.485572,3.750000 C16.237976,9.375000 16.237976,20.625000 19.485572,26.250000" stroke="#ff0" stroke-width="1.5" /><path d="M25.980762,15.000000 C19.485572,15.000000 9.742786,20.625000 6.495191,26.250000" stroke="#f00" stroke-width="1.5" /><path d="M-0.000000,15.000000 C6.495191,15.000000 9.742786,9.375000 6.495191,3.750000" stroke="#00f" stroke-width="1.5" /><polygon fill="none" points="12.990381056766578,30.0 25.980762113533157,22.5 25.98076211353316,7.5000000000000036 12.99038105676658,0.0 1.7763568394002505e-15,7.499999999999993 -7.105427357601002e-15,22.49999999999999" stroke="#fff" stroke-width="0.9" /><text fill="#fff" font-size="3" x="12.99038105676658" y="14.999999999999998">#7</text></g><g transform="translate(25.980762113533157,45.0)"><polygon fill="#000" points="12.990381056766578,30.0 25.980762113533157,22.5 25.98076211353316,7.5000000000000036 12.99038105676658,0.0 1.7763568394002505e-15,7.499999999999993 -7.105427357601002e-15,22.49999999999999" stroke="none" /><path d="M19.485572,3.750000 C16.237976,9.375000 9.742786,9.375000 6.495191,3.750000" stroke="#00f" stroke-width="1.5" /><path d="M25.980762,15.000000 C19.485572,15.000000 6.495191,15.000000 -0.000000,15.000000" stroke="#f00" stroke-width="1.5" /><path d="M19.485572,26.250000 C16.237976,20.625000 9.742786,20.625000 6.495191,26.250000" stroke="#ff0" stroke-width="1.5" /><polygon fill="none" points="12.990381056766578,30.0 25.980762113533157,22.5 25.98076211353316,7.5000000000000036 12.99038105676658,0.0 1.7763568394002505e-15,7.499999999999993 -7.105427357601002e-15,22.49999999999999" stroke="#fff" stroke-width="0.9" /><text fill="#fff" font-size="3" x="12.99038105676658" y="14.999999999999998">#5</text></g></svg>